<?xml version="1.0" encoding="UTF-8" standalone="no"?>
<!-- Created with Inkscape (http://www.inkscape.org/) -->

<svg
   width="129.97536mm"
   height="129.97536mm"
   viewBox="0 0 129.97536 129.97536"
   version="1.1"
   id="svg1"
   xml:space="preserve"
   sodipodi:docname="SOMOs_logo_vectorized.svg"
   inkscape:version="1.4.1 (unknown)"
   inkscape:export-filename="SOMOs_logo_vectorized.png"
   inkscape:export-xdpi="600"
   inkscape:export-ydpi="600"
   xmlns:inkscape="http://www.inkscape.org/namespaces/inkscape"
   xmlns:sodipodi="http://sodipodi.sourceforge.net/DTD/sodipodi-0.dtd"
   xmlns="http://www.w3.org/2000/svg"
   xmlns:svg="http://www.w3.org/2000/svg"><sodipodi:namedview
     id="namedview1"
     pagecolor="#ffffff"
     bordercolor="#666666"
     borderopacity="1.0"
     inkscape:showpageshadow="2"
     inkscape:pageopacity="0.0"
     inkscape:pagecheckerboard="0"
     inkscape:deskcolor="#d1d1d1"
     inkscape:document-units="mm"
     inkscape:zoom="1.4423193"
     inkscape:cx="253.75796"
     inkscape:cy="377.1703"
     inkscape:window-width="2544"
     inkscape:window-height="1344"
     inkscape:window-x="83"
     inkscape:window-y="58"
     inkscape:window-maximized="0"
     inkscape:current-layer="layer1" /><defs
     id="defs1"><clipPath
       clipPathUnits="userSpaceOnUse"
       id="clipPath7"><rect
         style="opacity:0.5;fill:#666666;fill-opacity:1;stroke:#00ffff;stroke-width:0.529168;stroke-linejoin:round;paint-order:stroke markers fill"
         id="rect7"
         width="491.24545"
         height="491.24545"
         x="215.20558"
         y="269.36749"
         ry="8.0077658"
         rx="8.0077658" /></clipPath><clipPath
       clipPathUnits="userSpaceOnUse"
       id="clipPath8"><rect
         style="opacity:0.5;fill:#666666;fill-opacity:1;stroke:#00ffff;stroke-width:0.529168;stroke-linejoin:round;paint-order:stroke markers fill"
         id="rect8"
         width="491.24545"
         height="491.24545"
         x="215.20558"
         y="269.36749"
         ry="8.0077658"
         rx="8.0077658" /></clipPath><clipPath
       clipPathUnits="userSpaceOnUse"
       id="clipPath9"><rect
         style="opacity:0.5;fill:#666666;fill-opacity:1;stroke:#00ffff;stroke-width:0.529168;stroke-linejoin:round;paint-order:stroke markers fill"
         id="rect9"
         width="491.24545"
         height="491.24545"
         x="215.20558"
         y="269.36749"
         ry="8.0077658"
         rx="8.0077658" /></clipPath><clipPath
       clipPathUnits="userSpaceOnUse"
       id="clipPath10"><rect
         style="opacity:0.5;fill:#666666;fill-opacity:1;stroke:#00ffff;stroke-width:0.529168;stroke-linejoin:round;paint-order:stroke markers fill"
         id="rect10"
         width="491.24545"
         height="491.24545"
         x="215.20558"
         y="269.36749"
         ry="8.0077658"
         rx="8.0077658" /></clipPath><clipPath
       clipPathUnits="userSpaceOnUse"
       id="clipPath11"><rect
         style="opacity:0.5;fill:#666666;fill-opacity:1;stroke:#00ffff;stroke-width:0.529168;stroke-linejoin:round;paint-order:stroke markers fill"
         id="rect11"
         width="491.24545"
         height="491.24545"
         x="215.20558"
         y="269.36749"
         ry="8.0077658"
         rx="8.0077658" /></clipPath><clipPath
       clipPathUnits="userSpaceOnUse"
       id="clipPath12"><rect
         style="opacity:0.5;fill:#666666;fill-opacity:1;stroke:#00ffff;stroke-width:0.529169;stroke-linejoin:round;paint-order:stroke markers fill"
         id="rect12"
         width="129.97536"
         height="129.97536"
         x="56.939812"
         y="71.270149"
         ry="8.0077658"
         rx="8.0077658" /></clipPath></defs><g
     inkscape:label="Layer 1"
     inkscape:groupmode="layer"
     id="layer1"
     transform="translate(-56.939814,-71.27015)"><path
       style="fill:#000000"
       d="M 56.939814,136.25783 V 71.27015 h 64.987676 64.98768 v 64.98768 64.98767 H 121.92749 56.939814 Z m 45.059816,44.37335 c 5.43351,-0.89534 9.04011,-5.15234 9.23412,-10.8994 0.2334,-6.914 -4.42171,-11.76909 -11.28436,-11.76909 -6.678307,0 -11.573276,5.18461 -11.240578,11.90569 0.349824,7.06703 6.330075,11.90979 13.290818,10.7628 z m -3.680942,-4.31794 c -3.750336,-1.04002 -5.823394,-4.88023 -4.835681,-8.95779 1.556782,-6.42686 10.623933,-6.85126 12.798233,-0.59904 1.91373,5.50292 -2.68361,11.02075 -7.962552,9.55683 z m 55.400742,4.11262 c 9.48861,-2.52033 11.37073,-16.03834 2.92164,-20.98425 -7.4051,-4.33477 -16.84394,0.68008 -17.16482,9.11966 -0.30794,8.09929 6.63743,13.8848 14.24318,11.86459 z m -4.6683,-4.12201 c -2.39678,-0.6589 -4.18906,-2.55099 -4.73502,-4.99871 -1.09055,-4.88935 1.82496,-9.02686 6.36081,-9.02686 4.56805,0 7.69057,4.43793 6.46188,9.18404 -0.93609,3.61586 -4.58984,5.8031 -8.08767,4.84153 z m 22.08856,4.14683 c 3.0901,-0.96356 4.73013,-4.35858 3.40946,-7.05792 -0.69961,-1.42996 -1.84797,-2.09638 -5.36713,-3.11469 -1.9171,-0.55473 -2.31848,-1.76378 -0.83857,-2.52598 0.73136,-0.37667 3.13349,-0.008 4.20368,0.64567 0.51533,0.31462 0.41777,0.44989 0.98063,-1.35964 0.26058,-0.83773 0.4976,-1.58568 0.52671,-1.66212 0.17581,-0.46169 -2.80514,-1.3162 -4.60074,-1.31883 -3.56567,-0.005 -5.70548,1.82812 -5.70143,4.88489 0.004,2.66742 1.19847,3.89644 4.75816,4.89392 2.03995,0.57163 2.53858,0.9064 2.53858,1.70435 0,1.76737 -2.51885,2.1097 -5.33102,0.72452 -0.66321,-0.32667 -1.24509,-0.61216 -1.29307,-0.63441 -0.12234,-0.0567 -1.14789,3.25237 -1.0547,3.40315 0.25054,0.4054 2.35002,1.2999 3.74399,1.59517 1.07859,0.22847 2.9933,0.14377 4.02545,-0.17808 z m -89.396089,-0.0188 c 4.422569,-1.1311 6.719812,-6.39931 4.380272,-10.04517 -0.942608,-1.46892 -2.517496,-2.31218 -6.251912,-3.3475 -2.787208,-0.77271 -3.448536,-1.24776 -3.448536,-2.47715 0,-2.38006 3.749845,-2.99194 7.319404,-1.19434 1.017887,0.5126 1.077738,0.52003 1.192025,0.14809 0.04827,-0.15707 0.394822,-0.96507 0.770128,-1.79554 0.856336,-1.8949 0.899992,-1.7063 -0.555184,-2.39854 -4.392792,-2.08971 -8.726055,-1.81417 -11.246941,0.71516 -1.770108,1.77603 -2.39968,4.43648 -1.599931,6.76099 0.696145,2.02338 2.227849,3.06194 6.357469,4.31064 3.435894,1.03893 4.33413,1.81358 3.913635,3.37518 -0.67618,2.51114 -5.176715,2.47446 -8.819278,-0.0719 -0.448296,-0.31338 -0.839552,-0.52993 -0.869458,-0.48121 -0.09715,0.15825 -1.475567,3.83723 -1.475567,3.93827 0,0.16851 1.918824,1.26719 3.03603,1.73837 2.515714,1.06099 5.191472,1.36334 7.297844,0.82462 z m 36.473119,-7.99932 c -0.0185,-4.3283 -0.005,-7.86804 0.0298,-7.86609 0.0349,0.002 1.20135,2.70078 2.59209,5.99742 1.39074,3.29663 2.63174,6.2383 2.75778,6.53703 l 0.22916,0.54316 1.6659,-0.0354 1.66589,-0.0354 2.59371,-6.21952 c 1.42655,-3.42074 2.62642,-6.34804 2.66638,-6.50511 0.20274,-0.79685 0.2328,0.33736 0.20099,7.58398 l -0.0346,7.86963 h 2.14079 2.1408 l 0.0833,-1.92412 c 0.1689,-3.90221 -0.008,-17.98668 -0.24428,-19.49516 l -0.0647,-0.41252 -3.00881,0.002 -3.00882,0.002 -2.40564,5.86814 c -1.32311,3.22748 -2.48384,6.06172 -2.5794,6.29831 l -0.17374,0.43017 -0.60683,-1.50907 c -0.33375,-0.82998 -1.19239,-2.90846 -1.90809,-4.61883 -0.71569,-1.71037 -1.61718,-3.86657 -2.0033,-4.79157 l -0.70203,-1.68181 h -3.01668 -3.01667 l -0.0777,0.72984 c -0.24363,2.28966 -0.44966,20.60225 -0.23634,21.00676 0.0276,0.0524 1.0187,0.0952 2.20241,0.0952 h 2.1522 z M 105,148.5 c 4.53141,-1.30434 9.88341,-5.51144 13.90089,-10.92723 0.53317,-0.71875 0.84641,-1.25234 0.79112,-1.34762 -0.0503,-0.0868 -0.44398,-0.70037 -0.87472,-1.36357 -4.06694,-6.26171 -6.33949,-13.19731 -6.11375,-18.65858 0.2058,-4.97897 2.58199,-11.55955 6.08246,-16.84466 0.61084,-0.92227 1.11063,-1.71373 1.11063,-1.75879 0,-0.0451 -0.48054,-0.71847 -1.06786,-1.49647 -4.75825,-6.30307 -10.81808,-10.5747 -15.69801,-11.06567 -2.1113,-0.21241 -4.176932,0.96316 -5.165173,2.93956 -3.149415,6.29856 -0.399751,17.46323 6.722593,27.29624 1.32133,1.82421 1.29457,1.63843 0.40823,2.83373 -6.941058,9.36069 -9.974734,19.81921 -7.672852,26.45197 1.232403,3.55111 3.974992,4.97774 7.576442,3.94109 z m 38.40811,-0.15781 c 6.44169,-3.17123 4.37997,-17.91347 -4.14855,-29.66407 -1.35075,-1.86107 -1.31155,-1.64795 -0.49176,-2.67351 8.84258,-11.06207 11.28505,-27.21785 4.61068,-30.49744 -6.55605,-3.22145 -21.26274,10.1702 -25.34652,23.08009 -0.35192,1.11249 -0.78158,2.79244 -0.71419,2.79244 0.0376,0 0.47613,-0.19974 0.97454,-0.44386 6.35228,-3.11134 12.80989,3.57526 9.51774,9.85523 -1.85885,3.54587 -6.13044,4.54293 -10.36234,2.41875 -0.72469,-0.36375 2.16194,6.47701 4.32757,10.25554 5.70001,9.9452 16.5266,17.39062 21.63283,14.87683 z m -20.94742,-26.44118 c 2.54231,-0.5319 4.27856,-3.01214 3.79623,-5.42292 -1.02639,-5.13003 -8.23903,-5.19982 -9.28134,-0.0898 -0.65609,3.21653 2.2931,6.18056 5.48511,5.51272 z"
       id="path1"
       clip-path="url(#clipPath12)" /><path
       style="opacity:1;fill:#00ffff;fill-opacity:1;stroke:#00c5c5;stroke-width:11.33858282;stroke-linejoin:round;paint-order:stroke markers fill;stroke-opacity:1;stroke-dasharray:none"
       d="m 525.09689,560.71363 c -20.21508,-5.44134 -44.16442,-25.52985 -60.61937,-50.84702 -7.44752,-11.45856 -21.31696,-41.18471 -19.88419,-42.61748 0.20499,-0.20499 2.26661,0.29551 4.58139,1.1122 6.57234,2.31886 17.22541,1.92612 23.19853,-0.85525 16.50869,-7.68721 19.2743,-31.50608 5.16231,-44.46042 -7.81889,-7.17747 -20.62613,-9.29656 -29.246,-4.83905 -1.75976,0.91 -3.43114,1.42297 -3.71419,1.13992 -0.28305,-0.28306 0.64175,-4.09979 2.05512,-8.48164 10.5136,-32.59528 40.72157,-69.54065 67.93961,-83.09245 14.01529,-6.97817 21.72394,-7.50729 29.96069,-2.05646 2.66995,1.76688 4.74384,4.44772 7.02435,9.08009 3.0146,6.12355 3.26323,7.39475 3.63594,18.59005 0.46037,13.82833 -0.97298,22.69292 -6.21958,38.46497 -4.99832,15.02572 -16.04976,35.552 -24.70159,45.87923 -1.28026,1.52817 -2.32774,3.37132 -2.32774,4.09588 0,0.72455 3.06125,5.88792 6.80278,11.47414 16.88461,25.20929 26.61724,52.77113 26.61724,75.37744 0,13.26322 -2.47413,21.34674 -8.32415,27.19676 -6.24579,6.24579 -12.00022,7.51492 -21.94115,4.83909 z"
       id="path2"
       transform="scale(0.26458333)"
       clip-path="url(#clipPath11)" /><path
       style="opacity:0.5;fill:#b3b3b3;fill-opacity:1;stroke:#cccccc;stroke-width:2;stroke-linejoin:round;paint-order:stroke markers fill"
       d="m 382.02548,560.80902 c -10.47219,-3.73386 -15.75659,-14.93235 -15.78956,-33.46067 -0.0398,-22.35918 8.84583,-46.88137 26.63564,-73.50795 3.95219,-5.91538 7.18581,-11.18537 7.18581,-11.71107 0,-0.52572 -3.12893,-5.63506 -6.95317,-11.3541 -19.2996,-28.86195 -29.45317,-60.22564 -26.57695,-82.09434 1.99926,-15.20084 7.66867,-23.74529 17.3776,-26.19002 11.80994,-2.97378 34.90029,8.8126 52.15782,26.62376 6.5442,6.75414 16.09062,18.42716 16.09062,19.67503 0,0.42702 -2.06486,3.98777 -4.58856,7.91278 -9.40553,14.62798 -17.25875,33.80427 -20.62535,50.36368 -3.28809,16.1733 -0.21292,37.70015 8.21751,57.52425 3.49537,8.21934 10.59028,21.57168 14.18265,26.69117 1.00694,1.435 1.83081,3.22646 1.83081,3.98101 0,0.75455 -2.26597,4.22487 -5.03548,7.7118 -14.58819,18.36716 -31.49093,31.45084 -47.6305,36.86872 -8.08886,2.71534 -11.08059,2.8907 -16.47889,0.96595 z"
       id="path3"
       transform="scale(0.26458333)"
       clip-path="url(#clipPath10)" /><path
       style="opacity:0.5;fill:#999999;fill-opacity:1;stroke:#cccccc;stroke-width:2;stroke-linejoin:round;paint-order:stroke markers fill"
       d="m 380.3322,559.56976 c -5.41916,-2.82333 -8.18394,-6.11833 -10.95346,-13.05405 -3.22205,-8.069 -3.12168,-29.11678 0.20156,-42.2665 3.14691,-12.45198 3.70264,-13.8947 11.06686,-28.73079 2.61086,-5.25988 4.71301,-9.8095 4.67144,-10.11026 -0.0416,-0.30076 0.51369,-1.1361 1.2339,-1.8563 0.72021,-0.72022 3.23265,-4.35359 5.58321,-8.07417 2.35055,-3.72059 5.09452,-7.96318 6.09769,-9.42799 1.00318,-1.46481 1.82397,-3.13231 1.82397,-3.70556 0,-1.33579 -4.94107,-9.2534 -6.04457,-9.68586 -0.45981,-0.18022 -0.83603,-0.7959 -0.83603,-1.3682 0,-1.32899 -7.80851,-13.795 -9.24128,-14.75339 -0.59378,-0.39718 -0.7415,-0.72892 -0.32825,-0.7372 0.73662,-0.0148 -4.8392,-11.82764 -6.03858,-12.7933 -0.33574,-0.27031 -0.70063,-1.15496 -0.81088,-1.96588 -0.11025,-0.81093 -1.7488,-5.77059 -3.64122,-11.02147 -7.84478,-21.76688 -8.63066,-42.44125 -2.13027,-56.04122 2.34245,-4.90082 8.52044,-10.33334 12.62754,-11.10384 3.69384,-0.69297 10.9477,-0.17763 13.98618,0.99363 13.46272,5.18952 27.12467,14.4124 38.02037,25.6667 8.3405,8.615 15.54997,17.43502 15.54997,19.02375 0,1.23873 -4.90193,10.9259 -5.99165,11.84067 -1.32845,1.11517 -6.63314,12.01703 -12.07671,24.81928 -1.53147,3.60173 -3.38435,9.2326 -4.07654,12.38852 -0.25453,1.16043 -0.67118,2.88394 -0.9259,3.83002 -2.03724,7.5666 -2.43694,10.84914 -2.42371,19.90458 0.0139,9.48882 1.2543,17.6122 4.76289,31.19121 1.67668,6.48913 9.41583,23.50034 14.83356,32.60523 5.34575,8.98394 5.68551,10.35276 3.38496,13.63726 -0.84158,1.20152 -1.22425,2.18459 -0.85038,2.18459 0.37387,0 -0.48991,0.92007 -1.91951,2.04459 -1.4296,1.12454 -2.48256,2.34093 -2.3399,2.70309 0.23813,0.60456 -18.08086,19.10344 -18.69493,18.87852 -0.14842,-0.0543 -1.69656,0.98803 -3.4403,2.31642 -9.99425,7.61368 -22.10296,13.14106 -31.25061,14.26527 -4.62754,0.56871 -6.14523,0.32207 -9.82942,-1.59735 z"
       id="path4"
       transform="scale(0.26458333)"
       clip-path="url(#clipPath9)" /><path
       style="opacity:0.5;fill:#666666;fill-opacity:1;stroke:#cccccc;stroke-width:2;stroke-linejoin:round;paint-order:stroke markers fill"
       d="m 380.5379,559.13784 c -4.63216,-2.29285 -9.10934,-7.68986 -11.14685,-13.43694 -0.85192,-2.40295 -1.27048,-8.86239 -1.2529,-19.3355 0.0236,-14.07559 0.30956,-16.75046 2.7229,-25.47279 3.38454,-12.23244 13.00033,-32.28983 22.02467,-45.94083 7.92509,-11.98818 8.09662,-13.18194 2.99885,-20.86988 -24.86082,-37.4926 -34.84614,-76.10144 -25.2781,-97.73932 4.06978,-9.20372 9.53855,-12.95468 18.88745,-12.95468 11.1826,0 28.03226,9.60967 43.80598,24.98335 10.57983,10.31152 16.8875,18.10747 16.8875,20.87207 0,1.0631 -1.54467,4.49809 -3.4326,7.63331 -1.88793,3.13522 -3.14656,6.16323 -2.79695,6.72891 0.34961,0.56567 0.20761,0.76396 -0.31555,0.44063 -0.99316,-0.61381 -7.6807,11.94245 -6.81938,12.80378 0.27095,0.27094 -0.1179,1.10316 -0.86411,1.84936 -1.87397,1.87397 -5.18499,10.92739 -7.95253,21.74483 -1.8095,7.07279 -2.30579,11.53229 -2.2425,20.15031 0.0779,10.61223 1.49141,23.30419 2.71037,24.33708 0.319,0.27031 0.7007,1.99118 0.84821,3.82415 0.51762,6.43184 13.3753,35.00308 15.23493,33.85377 0.58569,-0.36198 0.72447,-0.15307 0.3263,0.49118 -0.38106,0.61657 0.43524,3.04598 1.81402,5.39867 2.74384,4.68201 3.1058,7.51655 1.37968,10.80439 -1.12153,2.13626 -2.38681,3.60019 -12.9737,15.01056 -3.05315,3.29062 -5.22096,6.34723 -4.81736,6.79244 0.40359,0.44523 0.29148,0.56144 -0.24914,0.25827 -0.54061,-0.30318 -4.30037,1.8634 -8.355,4.81461 -8.71259,6.34154 -18.86352,11.43934 -26.99168,13.55523 -7.64524,1.99017 -9.04512,1.93113 -14.15251,-0.59696 z"
       id="path5"
       transform="scale(0.26458333)"
       clip-path="url(#clipPath8)" /><path
       style="opacity:1;fill:#666666;fill-opacity:1;stroke:#cccccc;stroke-width:11.33858282;stroke-linejoin:round;paint-order:stroke markers fill;stroke-dasharray:none;stroke-opacity:1"
       d="m 379.82335,557.85116 c -4.93678,-2.95944 -8.826,-8.42593 -10.16277,-14.28427 -1.7763,-7.7846 -1.28365,-29.97208 0.8621,-38.82621 3.06962,-12.66634 12.28654,-32.9933 21.28161,-46.93438 6.70125,-10.38599 8.49427,-14.38365 7.76669,-17.31634 -0.35332,-1.42413 -2.86169,-6.05598 -5.57416,-10.29301 -20.07025,-31.35076 -30.20602,-66.66982 -25.01014,-87.15022 2.72485,-10.74043 8.75975,-17.53725 16.55231,-18.64205 8.45673,-1.19896 17.76684,1.99129 30.4845,10.44597 12.58297,8.36514 33.1937,29.69816 33.17233,34.33484 -0.005,1.0313 -1.78511,5.19252 -3.95635,9.24715 -8.6218,16.1006 -13.07453,26.13028 -16.36434,36.86033 -2.5369,8.27432 -2.71126,9.99078 -2.69592,26.53943 0.0214,23.06652 1.82784,30.22413 13.69452,54.26067 4.85869,9.84153 8.34779,18.14057 8.34779,19.85571 0,4.26523 -17.03883,23.24397 -26.73064,29.77399 -13.49354,9.09152 -26.34391,14.56551 -34.14443,14.54483 -1.95898,-0.005 -5.28049,-1.07207 -7.5231,-2.41644 z"
       id="path6"
       transform="scale(0.26458333)"
       clip-path="url(#clipPath7)" /><rect
       style="fill:#000000;fill-opacity:1;stroke:none;stroke-width:2;stroke-linejoin:round;paint-order:stroke markers fill"
       id="rect18"
       width="112.08366"
       height="31.185305"
       x="67.212624"
       y="155.65392"
       rx="8.0077658"
       ry="8.0077658" /><g
       id="g18"
       transform="translate(0.03930666,-45.270558)"><path
         style="opacity:1;fill:#ececec;fill-opacity:1;stroke:#666666;stroke-width:2;stroke-linejoin:round;stroke-dasharray:none;paint-order:stroke markers fill"
         d="m 85.292812,227.99959 c -0.143038,-0.0461 -0.903743,-0.28116 -1.690455,-0.52232 -0.786712,-0.24115 -2.037825,-0.78394 -2.780252,-1.20618 l -1.349867,-0.76772 0.656706,-1.74525 c 0.361189,-0.95989 0.685315,-1.77403 0.720281,-1.80919 0.03496,-0.0352 0.917802,0.37445 1.96186,0.91025 1.650606,0.84707 2.175933,0.98587 4.026249,1.06386 1.993771,0.084 2.18027,0.0457 2.957439,-0.60828 0.660084,-0.55542 0.829475,-0.89642 0.829475,-1.66978 0,-1.37146 -0.732318,-1.9459 -3.795999,-2.97765 -4.930751,-1.66051 -6.263534,-2.7605 -6.727325,-5.55228 -0.460697,-2.77315 1.641472,-6.00315 4.531814,-6.96317 2.411671,-0.80103 7.054997,-0.14439 8.991372,1.27152 0.487939,0.35679 0.485534,0.39519 -0.11805,1.88533 -0.338873,0.83662 -0.690369,1.60637 -0.7811,1.71056 -0.09073,0.1042 -0.863833,-0.0978 -1.717998,-0.44895 -1.817873,-0.74725 -4.402106,-0.87187 -5.568834,-0.26853 -0.890257,0.46037 -1.39708,1.71034 -1.056597,2.60588 0.300159,0.78948 1.018699,1.15299 4.392479,2.22219 3.127659,0.9912 4.586434,1.96599 5.426201,3.62594 1.608722,3.17991 -0.403665,7.72452 -3.956529,8.9351 -1.104111,0.37621 -4.152044,0.56624 -4.95087,0.30867 z"
         id="path12" /><path
         style="opacity:1;fill:#ececec;fill-opacity:1;stroke:#666666;stroke-width:2;stroke-linejoin:round;stroke-dasharray:none;paint-order:stroke markers fill"
         d="m 105.51355,227.99019 c -3.33367,-0.72418 -6.145021,-3.03182 -7.675401,-6.3002 -1.473128,-3.1461 -1.273878,-7.62544 0.471364,-10.59677 1.758047,-2.99313 5.172357,-5.0423 8.774677,-5.2663 7.00297,-0.43545 11.87373,4.13687 11.8846,11.15643 0.009,5.68866 -3.32645,9.86538 -8.80521,11.02666 -2.07173,0.43913 -2.54666,0.43711 -4.65003,-0.0198 z m 5.42672,-4.49304 c 3.07421,-1.60598 4.52895,-5.28425 3.48295,-8.80652 -0.91051,-3.06601 -3.20971,-4.77102 -6.4337,-4.77102 -2.88802,0 -4.90606,1.14337 -6.11049,3.46205 -0.6003,1.15567 -0.70085,1.6664 -0.70085,3.55984 0,1.88644 0.10145,2.40584 0.69186,3.54208 1.77195,3.41013 5.76901,4.73815 9.07023,3.01357 z"
         id="path13" /><path
         style="opacity:1;fill:#ececec;fill-opacity:1;stroke:#666666;stroke-width:2;stroke-linejoin:round;stroke-dasharray:none;paint-order:stroke markers fill"
         d="m 121.91456,227.44272 c -0.22926,-0.59745 0.16417,-20.7307 0.40994,-20.97827 0.11154,-0.11236 1.46936,-0.17088 3.01738,-0.13004 l 2.81458,0.0742 2.5411,6.11165 c 1.3976,3.3614 2.61991,6.11164 2.71625,6.11164 0.0963,0 1.30426,-2.77732 2.68426,-6.17182 l 2.5091,-6.17183 2.89176,-0.005 2.89176,-0.005 0.1612,0.97526 c 0.0887,0.5364 0.16248,5.3932 0.16406,10.79291 l 0.003,9.81764 h -2.11999 -2.11999 l 0.12605,-6.17666 c 0.0693,-3.39717 0.0507,-6.93737 -0.0413,-7.86712 l -0.1674,-1.69046 -0.40883,0.91025 c -0.22486,0.50063 -1.43309,3.39717 -2.68496,6.43673 l -2.27614,5.52649 h -1.39538 c -0.76746,0 -1.48315,0.0159 -1.59043,0.0354 -0.10728,0.0194 -1.39884,-2.81693 -2.87014,-6.30306 -1.4713,-3.48613 -2.7879,-6.45123 -2.92578,-6.58912 -0.16089,-0.16089 -0.25071,2.60959 -0.25071,7.73345 v 7.98415 h -1.95868 c -1.56641,0 -1.9911,-0.0845 -2.12052,-0.42172 z"
         id="path14" /><path
         style="opacity:1;fill:#ececec;fill-opacity:1;stroke:#666666;stroke-width:2;stroke-linejoin:round;stroke-dasharray:none;paint-order:stroke markers fill"
         d="m 156.50664,228.11293 c -3.04593,-0.60225 -6.38266,-3.20667 -7.70786,-6.0162 -3.39269,-7.19278 0.60328,-15.02258 8.33215,-16.32623 4.59636,-0.77527 9.56224,1.82761 11.51764,6.03702 3.94977,8.50269 -3.18009,18.07739 -12.14193,16.30541 z m 4.98669,-4.50929 c 2.59178,-1.22527 3.90326,-3.47832 3.87796,-6.66214 -0.0182,-2.28538 -0.42763,-3.38961 -1.83715,-4.95428 -1.32178,-1.46728 -2.80265,-2.10417 -4.92092,-2.11639 -3.1277,-0.0181 -5.48653,1.73814 -6.39164,4.75867 -0.46735,1.55964 -0.18378,4.61582 0.56292,6.0668 1.60534,3.11947 5.50577,4.42158 8.70883,2.90734 z"
         id="path15" /><path
         style="opacity:1;fill:#ececec;fill-opacity:1;stroke:#666666;stroke-width:2;stroke-linejoin:round;stroke-dasharray:none;paint-order:stroke markers fill"
         d="m 173.23739,227.5 c -0.83574,-0.35056 -1.58594,-0.7038 -1.66712,-0.78498 -0.0812,-0.0812 0.061,-0.83653 0.31594,-1.67856 l 0.46353,-1.53097 1.5235,0.61906 c 2.86108,1.16256 5.17482,0.71767 5.17482,-0.99502 0,-0.8743 -0.25975,-1.04873 -2.81345,-1.88941 -3.67443,-1.20961 -5.01098,-3.12268 -4.20152,-6.01381 0.81408,-2.90759 4.30209,-4.12992 8.31532,-2.914 1.48516,0.44997 1.5705,0.60138 1.11498,1.97808 -0.22215,0.6714 -0.48424,1.31076 -0.58243,1.42081 -0.0982,0.11005 -0.68251,0.0223 -1.29848,-0.19505 -1.61059,-0.56825 -3.27523,-0.5151 -3.91533,0.125 -0.625,0.625 -0.63589,0.75929 -0.12115,1.49419 0.24582,0.35095 1.06952,0.7725 2.14558,1.09806 3.59464,1.08755 5.00078,2.43737 4.99318,4.79319 -0.005,1.69027 -0.79042,3.11862 -2.29545,4.17686 -1.01406,0.71302 -1.34726,0.79807 -3.37871,0.86248 -1.90754,0.0605 -2.48709,-0.0265 -3.77321,-0.56593 z"
         id="path16" /></g><text
       xml:space="preserve"
       style="font-weight:bold;font-size:25.4px;line-height:0px;font-family:Calibri;-inkscape-font-specification:'Calibri Bold';text-decoration-color:#000000;letter-spacing:0px;word-spacing:0px;fill:#000000;stroke:#000000;stroke-width:0.965;stroke-linecap:butt;stroke-linejoin:miter;stroke-dasharray:none;stroke-opacity:1;stop-color:#000000"
       x="61.670513"
       y="182.81416"
       id="text18"><tspan
         sodipodi:role="line"
         id="tspan18"
         style="font-style:normal;font-variant:normal;font-weight:bold;font-stretch:normal;font-size:25.4px;font-family:'Noto Sans Mono';-inkscape-font-specification:'Noto Sans Mono Bold';fill:#f9f9f9;stroke:#666666;stroke-width:0.965;stroke-dasharray:none"
         x="61.670513"
         y="182.81416">g</tspan></text></g></svg>
